<svg  xmlns="http://www.w3.org/2000/svg">
    <symbol id="arrow" viewBox="0 0 42 42">
        <rect x="10" y="25.6066" width="15" height="2" rx="1" transform="rotate(-45 10 25.6066)" fill="#b3b0b0"/>
        <rect x="20.7071" y="15" width="15" height="2" rx="1" transform="rotate(45 20.7071 15)" fill="#b3b0b0"/>
        <circle cx="21" cy="21" r="20" fill="transparent" stroke="#b3b0b0" stroke-width="2"/>
    </symbol>
    <symbol id="shoot" viewBox="0 0 58 58">
        <path d="M26.4253 33.046C26.024 33.046 25.6897 33.3908 25.6897 33.8046V46.8391C25.6897 47.2529 26.024 47.5977 26.4253 47.5977C26.8265 47.5977 27.1609 47.2529 27.1609 46.8391V33.8046C27.1609 33.3908 26.8265 33.046 26.4253 33.046Z" fill="#b3b0b0" fill-opacity="0.8"/>
        <path d="M33.4598 21.0115V20.9425C33.4598 15.908 31.9425 11.0115 29.1149 6.87356C28.8391 6.45977 28.1494 6.45977 27.8736 6.87356C25.046 11.0805 23.5287 15.908 23.5287 20.9425V21.0115V23.4253C22.4942 26.5287 22.0115 29.7011 22.0115 32.9425V49.908C22.0115 50.3218 22.3563 50.6667 22.7701 50.6667H34.2874C34.7011 50.6667 35.046 50.3218 35.046 49.908V32.8736C35.046 29.6322 34.5632 26.4598 33.5287 23.3563V21.0115H33.4598ZM28.4942 8.5977C30.6322 12.1149 31.8046 16.046 31.9425 20.1149H25.046C25.1839 16.046 26.3563 12.1149 28.4942 8.5977ZM33.4598 49.0805H23.4598V32.8736C23.4598 29.7701 23.9425 26.6667 24.977 23.7011C24.977 23.6322 25.046 23.5632 25.046 23.4943V21.6322H32.0115V23.4943C32.0115 23.5632 32.0115 23.6322 32.0805 23.7701C33.046 26.7356 33.5977 29.7701 33.5977 32.9425V49.0805H33.4598Z" fill="#b3b0b0" fill-opacity="0.8"/>
        <path d="M56.3218 29C56.3218 44.0894 44.0894 56.3218 29 56.3218C13.9106 56.3218 1.67816 44.0894 1.67816 29C1.67816 13.9106 13.9106 1.67816 29 1.67816C44.0894 1.67816 56.3218 13.9106 56.3218 29Z" fill="transparent" stroke="#b3b0b0" stroke-width="2"/>
    </symbol>
</svg>